<svg id="Layer_1" data-name="Layer 1" xmlns="http://www.w3.org/2000/svg" viewBox="0 0 360.9 149.5">
  <defs>
    <style>
      .cls-1 {
        fill: #e50000;
      }

      .cls-2, .cls-3 {
        fill: #fff;
      }

      .cls-3 {
        isolation: isolate;
        font-size: 7.8px;
        font-family: Helvetica, Helvetica;
      }
    </style>
  </defs>
  <title>sabre_logo_cleat_angle</title>
  <polygon class="cls-1" points="304.6 149.5 0 149.5 0 0 360.9 0 304.6 149.5"/>
  <g>
    <path class="cls-2" d="M356.25,114.2c-2.4,6.5-8.6,10.8-19.1,10.8-8.6,0-17.2-5-14.9-16.6,1.7-9.7,10.5-16.3,20.7-16.3,11.4,0,16.6,7.8,14.6,17l-.4,2.1h-21.5a16.39,16.39,0,0,0-.4,2.4c0,2.8,1.5,3.7,3.2,3.7a4.76,4.76,0,0,0,4.5-3.2l13.3.1Zm-11.1-9.3.2-.7c.4-2.4-.7-4.3-3.2-4.3s-4.5,1.7-5,5Zm-25-12a9.24,9.24,0,0,0-7.8,4.3H312l.6-3.9h-13.8l-.9,4.1,7.7-.9-.2.7-7.8,1.3-5.2,25.8h14.9s1.5-7.5,2.4-11.8c1.5-7.1,5.2-8.4,7.8-8.4a5.57,5.57,0,0,1,3.7,1.1l2.4-11.4a5.65,5.65,0,0,0-3.4-.9M184.25,106c-6-1.9-10.5-5.4-10.5-12.1,0-9.7,9.7-15.3,23-15.5,11,0,18.5,4.7,17.2,13.8h-15.9c.6-2.4-.9-3.9-3.7-3.9-2.1,0-3.7.9-3.9,2.4-.4,1.7.9,3,3.7,3.7,2.4.7,3.9,1.1,6.4,1.7,6.7,2.1,9.9,6,10.7,10.1l-19.8,2.1-7.2-2.3Zm.6,10.8,1.3-6.4h-17c-1.1,10.5,7.1,14.9,17.9,14.9,10.3,0,21.3-3.6,23.5-12.9l-25.7,4.4Zm88-21.5a13.47,13.47,0,0,1,8.4-3c4.5,0,8,1.9,9.7,5.6l-34.6,3.7,4.5-22.1h14.9l-3.4,15.9h.4v-.1Zm-.9,7.3a18.45,18.45,0,0,0-2.4,6c-1.3,6.2.2,7.8,1.9,7.8,2.4,0,4.5-2.4,5.6-7.7.6-3.4.4-5.8-.4-6.9l14.9-2.4a18.3,18.3,0,0,1,.2,8.8c-2.2,11.2-9,16.8-16.4,16.8-3.4,0-7.1-.9-8.6-4.5h-.4l-1.1,3.7h-13.5l3.9-19.1,16.3-2.5Zm-41.1,0a4,4,0,0,1,3.7-3.4,2.43,2.43,0,0,1,2.2,3.2l-.2,1.1,13.8-1.5c-.9-7.1-7.7-10.3-15.3-10.3-11.6,0-17.2,5.8-18.3,10.8l-.2.7h14l.3-.6m-17.2,9.4a11.32,11.32,0,0,0-.7,3.9c0,4.9,3.7,9.2,9.7,9.2a14,14,0,0,0,10.3-3.9h.2l-.4,3h14l3.4-16.3a6.46,6.46,0,0,0,.4-1.9l-36.9,6Zm21.1,1.3c-.4,2.4-2.1,4.3-4.3,4.3s-3-1.7-2.8-3.7c.4-1.7,2.1-3.2,5-3.2h2.4l-.3,2.6Z" transform="translate(-103.55 -29)"/>
    <text class="cls-3" transform="translate(254.94 95.95)">®</text>
  </g>
</svg>
